<svg width="35" height="35" viewBox="0 0 35 35" fill="none" xmlns="http://www.w3.org/2000/svg">
<path d="M11.4639 0.10254C10.2949 0.341797 9.2285 1.16211 8.72948 2.1875C8.25096 3.17188 8.27147 2.76172 8.27147 10.4658V17.4111L7.86815 17.6299C6.81542 18.1904 5.5371 19.3115 4.81932 20.3027C4.10839 21.294 3.59569 22.4492 3.31542 23.6934C3.14452 24.459 3.1035 26.209 3.24022 27.1045C3.37694 27.9522 3.76659 29.21 4.12206 29.9209C5.40721 32.4639 7.66991 34.207 10.459 34.8018C11.04 34.9248 11.4023 34.9522 12.3389 34.959C13.6308 34.959 14.2529 34.8701 15.333 34.5147C18.4297 33.5029 20.6855 30.9121 21.4101 27.5283C21.6084 26.6055 21.6221 24.8076 21.4443 23.9121C20.918 21.2666 19.4072 19.1475 17.0898 17.7734L16.4746 17.4111V10.623C16.4746 3.01465 16.4814 3.19922 16.0029 2.22168C15.6543 1.53125 15.2988 1.11426 14.7109 0.72461C13.7949 0.116211 12.5439 -0.123046 11.4639 0.10254ZM13.289 2.2832C13.7129 2.49512 14.0342 2.83008 14.2461 3.27442C14.3896 3.58887 14.3896 3.62305 14.4101 11.1836L14.4238 18.7783L14.8887 18.9697C16.9053 19.8037 18.4228 21.3008 19.0723 23.0918C19.4346 24.0898 19.5098 24.5342 19.5029 25.7031C19.5029 26.8789 19.3662 27.5625 18.9424 28.5811C18.4433 29.7774 17.4316 31.0352 16.4199 31.7119C15.0596 32.6279 13.2002 33.0791 11.6142 32.8877C8.66796 32.5322 6.43944 30.707 5.54393 27.9248C5.25682 27.043 5.16796 26.3184 5.21581 25.2656C5.33885 22.4287 6.9453 20.2002 9.72069 19.0244L10.3223 18.7715V11.2451C10.3223 2.63184 10.2744 3.31543 10.9307 2.66602C11.4092 2.19434 11.7988 2.03711 12.4551 2.07813C12.7764 2.0918 13.0293 2.15332 13.289 2.2832Z" fill="#059669"/>
<path d="M11.4844 21.7109C10.7187 21.875 10.083 22.2373 9.46777 22.8594C8.62012 23.707 8.27148 24.5478 8.27148 25.7031C8.27832 27.5215 9.29004 28.9912 10.9375 29.5791C11.6006 29.8115 12.6533 29.873 13.3437 29.709C14.7246 29.3877 15.8184 28.376 16.2422 27.043C16.7412 25.4707 16.3857 23.9668 15.2441 22.832C14.2393 21.8271 12.8584 21.4101 11.4844 21.7109ZM13.3164 23.9394C13.8428 24.1855 14.1572 24.582 14.3281 25.2041C14.7178 26.6328 13.501 27.9795 12.0312 27.7471C11.5869 27.6787 11.0469 27.3779 10.8076 27.0771C10.418 26.585 10.3564 26.3935 10.3564 25.7373C10.3564 25.2041 10.3838 25.0742 10.541 24.7734C10.8418 24.1992 11.3271 23.8506 11.9902 23.7275C12.4141 23.6455 12.8379 23.7139 13.3164 23.9394Z" fill="#059669"/>
<path d="M27.0225 0.102536C26.0039 0.382809 25.2793 1.03906 24.9102 2.0166C24.7871 2.33789 24.7803 2.70019 24.7461 7.85449L24.7119 13.3574L24.2266 13.4395C22.6611 13.6992 21.6699 14.8818 21.6699 16.4883C21.6699 18.04 22.6816 19.2295 24.2334 19.4893L24.7461 19.5781V25.9697C24.7461 31.0967 24.7666 32.4365 24.8418 32.71C25.1562 33.9062 26.0859 34.7334 27.3301 34.9385C28.2461 35.0889 29.251 34.7812 29.9414 34.1387C30.3379 33.7695 30.7275 33.0449 30.8301 32.4775C30.8711 32.252 30.8984 29.7227 30.8984 25.833V19.5508H31.0557C31.3223 19.5508 32.0127 19.3525 32.3887 19.1611C32.8535 18.9287 33.4551 18.293 33.6738 17.8076C34.4736 15.9893 33.5508 13.9932 31.6846 13.4941C31.5 13.4395 31.2471 13.3984 31.124 13.3984H30.9053L30.8848 7.90918C30.8643 2.49512 30.8643 2.41992 30.7139 2.04394C30.6387 1.83203 30.4951 1.53808 30.3994 1.39453C30.1807 1.0459 29.6201 0.526364 29.2715 0.348629C28.6084 0.0136685 27.7266 -0.0820346 27.0225 0.102536ZM28.3076 2.19433C28.5059 2.29004 28.6221 2.41308 28.7178 2.61816C28.8408 2.8916 28.8477 3.14453 28.8477 8.14844V13.3984H27.8223H26.7969V8.07324V2.75488L26.9541 2.52246C27.2549 2.07129 27.8018 1.93457 28.3076 2.19433ZM31.3701 15.5723C31.8691 15.8252 32.04 16.3584 31.8008 16.8984C31.6982 17.1377 31.6025 17.2402 31.3564 17.3564C31.0557 17.5068 31.0215 17.5068 27.7061 17.4863C24.6162 17.4658 24.3496 17.459 24.1787 17.3428C23.8437 17.124 23.707 16.8301 23.7412 16.3926C23.7617 15.9756 23.8711 15.8047 24.2334 15.5791C24.4248 15.4561 24.6436 15.4492 27.7881 15.4492C30.8437 15.4492 31.1582 15.4629 31.3701 15.5723ZM28.8477 25.8057C28.8477 30.9395 28.834 32.1084 28.752 32.2861C28.6289 32.5801 28.2871 32.8672 27.9795 32.9219C27.665 32.9834 27.1729 32.7852 26.9746 32.5186C26.8311 32.3271 26.8311 32.3066 26.8105 25.9355L26.7969 19.5508H27.8223H28.8477V25.8057Z" fill="#059669"/>
<path d="M1.02539 3.07617V4.10156H3.58887H6.15234V3.07617V2.05078H3.58887H1.02539V3.07617Z" fill="#059669"/>
<path d="M3.07617 7.17773V8.20312H4.61426H6.15234V7.17773V6.15234H4.61426H3.07617V7.17773Z" fill="#059669"/>
<path d="M1.02539 11.3135V12.373H3.58887H6.15234V11.3135V10.2539H3.58887H1.02539V11.3135Z" fill="#059669"/>
<path d="M3.07617 15.4492V16.4746H4.61426H6.15234V15.4492V14.4238H4.61426H3.07617V15.4492Z" fill="#059669"/>
</svg>
