<svg xmlns="http://www.w3.org/2000/svg" xmlns:xlink="http://www.w3.org/1999/xlink" viewBox="0 0 649.85 634.47"><defs><style>.cls-1{fill:url(#Безымянный_градиент_16);}.cls-2{fill:url(#Безымянный_градиент_9);}.cls-3{fill:url(#Безымянный_градиент_16-2);}.cls-4,.cls-9{fill:none;stroke-width:2px;}.cls-4{stroke-linecap:round;stroke-linejoin:round;stroke:url(#Безымянный_градиент_140);}.cls-5{fill:url(#Безымянный_градиент_16-3);}.cls-6{fill:url(#Безымянный_градиент_181);}.cls-7{fill:url(#Безымянный_градиент_178);}.cls-8{fill:url(#Безымянный_градиент_16-4);}.cls-9{stroke-linejoin:bevel;stroke:url(#Безымянный_градиент_188);}.cls-10{opacity:0.7;fill:url(#Безымянный_градиент_228);}</style><linearGradient id="Безымянный_градиент_16" x1="2011.01" y1="1593.62" x2="2186.04" y2="1403.22" gradientTransform="translate(2490.87 1903.35) rotate(180)" gradientUnits="userSpaceOnUse"><stop offset="0.02" stop-color="#6eacde"/><stop offset="0.59" stop-color="#085c9e"/><stop offset="1" stop-color="#20386a"/></linearGradient><linearGradient id="Безымянный_градиент_9" x1="2121.81" y1="1720.44" x2="2455.87" y2="1262.25" gradientTransform="translate(2490.87 1903.35) rotate(180)" gradientUnits="userSpaceOnUse"><stop offset="0" stop-color="#6eacde"/><stop offset="0.83" stop-color="#2581c4" stop-opacity="0"/></linearGradient><linearGradient id="Безымянный_градиент_16-2" x1="48.22" y1="328.38" x2="191.63" y2="172.38" gradientTransform="translate(60.69 -85.38) rotate(3.39)" xlink:href="#Безымянный_градиент_16"/><linearGradient id="Безымянный_градиент_140" x1="242.31" y1="119.06" x2="276.16" y2="152.92" gradientUnits="userSpaceOnUse"><stop offset="0" stop-color="#20386a"/><stop offset="0.4" stop-color="#6eacde"/><stop offset="0.59" stop-color="#085c9e"/><stop offset="0.91" stop-color="#20386a"/></linearGradient><linearGradient id="Безымянный_градиент_16-3" x1="278.28" y1="116.41" x2="320.88" y2="70.07" gradientTransform="matrix(1, 0, 0, 1, 0, 0)" xlink:href="#Безымянный_градиент_16"/><linearGradient id="Безымянный_градиент_181" x1="264.32" y1="128.22" x2="333.8" y2="128.22" gradientUnits="userSpaceOnUse"><stop offset="0" stop-color="#276eae"/><stop offset="0.17" stop-color="#6eacde"/><stop offset="0.59" stop-color="#085c9e"/><stop offset="1" stop-color="#20386a"/></linearGradient><linearGradient id="Безымянный_градиент_178" x1="281.37" y1="180.62" x2="323.61" y2="134.67" gradientUnits="userSpaceOnUse"><stop offset="0.02" stop-color="#6eacde"/><stop offset="0.54" stop-color="#1566a7"/></linearGradient><linearGradient id="Безымянный_градиент_16-4" x1="354.32" y1="202.47" x2="519.51" y2="22.78" gradientTransform="translate(60.69 -85.38) rotate(3.39)" xlink:href="#Безымянный_градиент_16"/><linearGradient id="Безымянный_градиент_188" x1="319.64" y1="106.59" x2="380.89" y2="106.59" gradientUnits="userSpaceOnUse"><stop offset="0" stop-color="#64a3d8"/><stop offset="1" stop-color="#6eacde"/></linearGradient><linearGradient id="Безымянный_градиент_228" x1="2069.92" y1="1644.14" x2="2298.91" y2="1365.82" gradientTransform="translate(2490.87 1903.35) rotate(180)" gradientUnits="userSpaceOnUse"><stop offset="0.01" stop-color="#6156a1"/><stop offset="0.12" stop-color="#ea75ab"/><stop offset="0.21" stop-color="#3f9cc9"/><stop offset="0.34" stop-color="#5db779"/><stop offset="0.5" stop-color="#a865a6"/><stop offset="0.63" stop-color="#4f9dc8"/><stop offset="0.75" stop-color="#6156a1"/></linearGradient></defs><title>Яхароший</title><g id="Слой_2" data-name="Слой 2"><g id="Слой_1-2" data-name="Слой 1"><path class="cls-1" d="M149.61,319.31c165.51-83.15,371.71-32.76,482.16,126,6.56,9.54,12.43,19.33,18.08,29.19-1.86,1.38-3.71,2.78-5.57,4.08-53.89,37.84-106.7,43.44-146,39.77-1.05-.11-2-.16-3.09-.26s-2.25-.34-3.37-.5a243.76,243.76,0,0,1-55.61-14.36s-8.3-40-33.21-83.8c-4.38-7.63-9.27-15.39-14.72-23.09h0a241.31,241.31,0,0,0-25.86-31C318.79,321.48,251.43,290.93,149.61,319.31Z"/><path class="cls-2" d="M150,319.19l-.06,0c48.66-13.58,89.47-13.7,123.55-5.33,1.31.32,2.59.65,3.85,1,2.67.72,5.3,1.48,7.89,2.31.5.15,1,.3,1.48.47q4.17,1.35,8.19,2.88c2.24.85,4.46,1.74,6.63,2.67,2.56,1.08,5.07,2.22,7.54,3.4.91.44,1.82.88,2.72,1.34,1.8.9,3.57,1.82,5.33,2.77q3.94,2.14,7.73,4.44,5.06,3.06,9.81,6.38,3.58,2.47,7,5.09a210.1,210.1,0,0,1,25,22.57c1.25,1.34,2.5,2.68,3.72,4l1.81,2c1.2,1.37,2.37,2.74,3.54,4.11q2.6,3.11,5.07,6.25c1.1,1.4,2.18,2.8,3.24,4.22,1.58,2.11,3.13,4.23,4.63,6.36h0C227.32,446.33,228.7,622,140.78,634.47c0,0-10.91-128.56-140.77-184.39H0C60.09,355.3,150,319.21,150,319.21c124.64-34.78,197.67,18.77,238.75,77"/><polygon class="cls-3" points="230.09 131.24 270.56 160.91 68.25 228.91 36.75 205.47 230.09 131.24"/><polyline class="cls-4" points="230.52 132.26 275.97 127.74 268.32 159.35"/><path class="cls-5" d="M329.93,107.09l-61.21.52,9-35.29h.07c0-5.73,9.58-10.38,21.38-10.38s21.41,4.65,21.41,10.38c0,.24,0,.05,0,0Z"/><path class="cls-6" d="M333.8,161.26H264.32l3.81-51.06h.1c0-8.29,13.86-15,30.94-15s31,6.74,31,15a8.74,8.74,0,0,1-.07,1Z"/><ellipse class="cls-7" cx="299.18" cy="161.25" rx="34.73" ry="23.8"/><polygon class="cls-8" points="609.45 46.99 380.75 123.88 339.33 89.31 571.94 0 609.45 46.99"/><polyline class="cls-9" points="340.36 89.95 319.67 120.98 380.86 122.78"/><path class="cls-10" d="M215.72,293.65c97.77-29.3,214.07-12.19,302.68,43.68,4.35,2.74,6,3.86,9.92,6.38-1.1.48-19.27,5.59-20.37,6-31.83,13.34-63,15.31-86.24,14l-1.83-.09c-.69,0-1.32-.12-2-.17A226.49,226.49,0,0,1,385,358.44s-4.9-14.09-19.62-29.52a113.77,113.77,0,0,0-8.7-8.14h0a116.37,116.37,0,0,0-15.27-10.91C315.66,294.41,275.87,283.65,215.72,293.65Z"/></g></g></svg>